#!OML:ASF Y:\EmotionMaleHayes\Project 1\Capture day 1\Session 1\Male1.ASF
:FULLY-SPECIFIED
:DEGREES
1424
root 47.0906 16.8649 -8.09587 355.276 3.50125 356.229
lowerback 6.60441 0.136939 1.87329
upperback 0.660581 0.414615 2.89473
thorax -3.03112 0.200081 1.89849
lowerneck -23.0283 0.61912 3.64603
upperneck 30.1424 -0.14461 -1.16854
head 14.1786 0.206105 -1.12119
rclavicle -2.26677e-014 -4.85035e-014
rhumerus -37.8219 -0.194744 -80.4168
rradius 35.2872
rwrist 0.669837
rhand -8.76141 -33.1249
rfingers 7.12502
rthumb 17.1761 -62.3857
lclavicle -2.26677e-014 -4.85035e-014
lhumerus -43.5096 -9.9161 93.9633
lradius 27.5814
lwrist -10.5953
lhand -10.9104 -23.4182
lfingers 7.12502
lthumb 15.1068 6.01051
rfemur -6.52146 -14.7857 11.9893
rtibia 11.491
rfoot -6.05263 -0.758521
rtoes 21.4408
lfemur 7.84187 6.68035 -6.69724
ltibia 53.96
lfoot -1.85103 6.81541
ltoes 3.23585
1425
root 47.0868 16.8711 -7.99326 355.234 3.46425 356.035
lowerback 6.56919 0.282774 2.22497
upperback 0.690212 0.630695 2.85384
thorax -2.98078 0.303303 1.6389
lowerneck -22.8974 0.489869 3.49173
upperneck 29.8864 -0.298426 -1.06775
head 14.0342 0.133469 -1.07952
rclavicle 5.1684e-015 7.55382e-015
rhumerus -36.9964 -0.12582 -80.1011
rradius 35.2663
rwrist 0.924906
rhand -8.33773 -32.9953
rfingers 7.12502
rthumb 17.5839 -62.2201
lclavicle 5.1684e-015 7.55382e-015
lhumerus -43.5487 -9.30175 93.3477
lradius 27.3256
lwrist -10.7808
lhand -11.0099 -23.5256
lfingers 7.12502
lthumb 15.011 5.9103
rfemur -6.52146 -14.7857 11.9893
rtibia 11.491
rfoot -6.05263 -0.758521
rtoes 21.4408
lfemur 6.49157 6.73979 -6.60905
ltibia 54.8731
lfoot -2.89004 6.41924
ltoes 2.16557
1426
root 47.0784 16.8766 -7.89903 355.202 3.30429 355.648
lowerback 6.71355 0.475379 2.78681
upperback 0.633694 0.937068 2.84681
thorax -3.11497 0.447632 1.28766
lowerneck -22.779 0.320237 3.33283
upperneck 29.7612 -0.49156 -1.02181
head 13.9489 0.0370974 -1.06767
rclavicle 9.58204e-015 -1.23246e-014
rhumerus -36.4471 -0.155528 -79.9028
rradius 35.4212
rwrist 1.07119
rhand -8.47932 -32.9321
rfingers 7.12502
rthumb 17.4476 -62.1691
lclavicle 9.58204e-015 -1.23246e-014
lhumerus -43.7302 -8.82784 92.7915
lradius 27.1166
lwrist -10.9693
lhand -11.3153 -23.5905
lfingers 7.12502
lthumb 14.7167 5.86716
rfemur -6.52146 -14.7857 11.9893
rtibia 11.491
rfoot -6.05263 -0.758521
rtoes 21.4408
lfemur 5.07027 6.97384 -6.19758
ltibia 55.7225
lfoot -3.80557 6.13078
ltoes 0.0909843
1427
root 47.0663 16.8779 -7.81082 355.156 3.12855 355.592
lowerback 7.11643 0.714754 3.00682
upperback 0.46381 1.29561 2.73041
thorax -3.51004 0.617595 1.00495
lowerneck -22.6837 0.147783 3.33524
upperneck 29.8466 -0.711948 -1.10111
head 13.9583 -0.0674182 -1.14069
rclavicle -1.0871e-014 1.63003e-014
rhumerus -36.2632 -0.460631 -79.7117
rradius 35.7753
rwrist 1.36903
rhand -8.98894 -33.1454
rfingers 7.12502
rthumb 16.9571 -62.4252
lclavicle -1.0871e-014 1.63003e-014
lhumerus -44.1346 -8.48755 92.2942
lradius 27.0265
lwrist -11.0995
lhand -11.7164 -23.5971
lfingers 7.12502
lthumb 14.3303 5.88829
rfemur -6.52146 -14.7857 11.9893
rtibia 11.491
rfoot -6.05263 -0.758521
rtoes 21.4408
lfemur 3.6722 7.17214 -6.22353
ltibia 56.4945
lfoot -4.57464 5.96997
ltoes -5.03722
1428
root 47.0573 16.8779 -7.72306 355.132 2.92511 355.523
lowerback 7.2836 0.911781 3.04975
upperback 0.449091 1.57118 2.74717
thorax -3.61741 0.752692 0.968031
lowerneck -22.8076 0.050844 3.22786
upperneck 29.9253 -0.776149 -1.21393
head 14.0159 -0.122517 -1.18118
rclavicle 3.41102e-014 1.31198e-014
rhumerus -35.4394 -0.372413 -79.3587
rradius 35.7596
rwrist 1.40932
rhand -9.11815 -33.3632
rfingers 7.12502
rthumb 16.8327 -62.6536
lclavicle 3.41102e-014 1.31198e-014
lhumerus -44.3352 -8.10257 91.916
lradius 27.0393
lwrist -10.9698
lhand -12.2567 -23.3255
lfingers 7.12502
lthumb 13.8096 6.19611
rfemur -6.52146 -14.7857 11.9893
rtibia 11.491
rfoot -6.05263 -0.758521
rtoes 21.4408
lfemur 2.25784 7.41573 -6.22309
ltibia 57.124
lfoot -5.47885 5.88996
ltoes -7.65562
1429
root 47.0497 16.8755 -7.6311 355.18 2.74668 355.533
lowerback 7.28704 1.07065 3.06387
upperback 0.45078 1.78253 2.71183
thorax -3.61506 0.857116 0.901955
lowerneck -22.8235 -0.118969 3.16566
upperneck 29.7413 -0.910207 -1.47075
head 13.9327 -0.227859 -1.29626
rclavicle -2.06612e-014 -2.10712e-014
rhumerus -34.4087 0.00562547 -79.0581
rradius 35.6134
rwrist 1.37513
rhand -8.80537 -33.3855
rfingers 7.12502
rthumb 17.1338 -62.6501
lclavicle -2.06612e-014 -2.10712e-014
lhumerus -44.5323 -7.82302 91.5438
lradius 27.0995
lwrist -10.6722
lhand -12.9077 -22.8332
lfingers 7.12502
lthumb 13.1822 6.73005
rfemur -6.52146 -14.7857 11.9893
rtibia 11.491
rfoot -6.05263 -0.758521
rtoes 21.4408
lfemur 0.785039 7.92502 -6.30416
ltibia 57.5522
lfoot -6.08617 6.1689
ltoes -12.1617
1430
root 47.0434 16.8719 -7.53716 355.253 2.56222 355.507
lowerback 7.2582 1.17407 3.11036
upperback 0.453932 1.92348 2.74026
thorax -3.59439 0.926797 0.891714
lowerneck -23.0082 -0.214974 2.63696
upperneck 29.9432 -0.995416 -1.04035
head 14.0637 -0.260237 -1.05232
rclavicle -1.73191e-014 -2.66371e-014
rhumerus -33.579 0.995598 -78.9106
rradius 35.8172
rwrist 0.989563
rhand -9.06721 -33.38
rfingers 7.12502
rthumb 16.8817 -62.6662
lclavicle -1.73191e-014 -2.66371e-014
lhumerus -44.6951 -7.2741 91.2276
lradius 27.1157
lwrist -10.3555
lhand -12.9803 -22.7171
lfingers 7.12502
lthumb 13.1122 6.85068
rfemur -6.52146 -14.7857 11.9893
rtibia 11.491
rfoot -6.05263 -0.758521
rtoes 21.4408
lfemur -0.699325 8.51667 -6.46244
ltibia 57.884
lfoot -5.98391 7.00392
ltoes -24.4529
1431
root 47.0453 16.8726 -7.44659 355.189 2.43045 355.383
lowerback 7.39522 1.25366 3.41001
upperback 0.489098 2.0597 2.74006
thorax -3.62353 0.989282 0.707434
lowerneck -23.0381 -0.279897 2.12462
upperneck 29.9278 -0.993789 -0.724769
head 14.0687 -0.273227 -0.837249
rclavicle 9.49818e-015 1.39149e-014
rhumerus -33.0133 2.10771 -78.8181
rradius 36.2925
rwrist 0.259818
rhand -9.59321 -33.3927
rfingers 7.12502
rthumb 16.3753 -62.7214
lclavicle 9.49818e-015 1.39149e-014
lhumerus -44.8046 -6.76526 90.9424
lradius 27.0902
lwrist -9.9437
lhand -12.7775 -22.7792
lfingers 7.12502
lthumb 13.3077 6.77595
rfemur 9.44166 -15.1091 25.0541
rtibia 5.64605
rfoot -13.2655 4.66193
rtoes 15.0451
lfemur -2.02673 8.53625 -6.63385
ltibia 58.0402
lfoot -6.32557 7.56519
ltoes -28.6153
1432
root 47.0554 16.875 -7.35982 355.048 2.40407 355.486
lowerback 7.6405 1.39514 3.61872
upperback 0.520088 2.27046 2.55921
thorax -3.71085 1.0878 0.376005
lowerneck -23.0149 -0.46906 1.95668
upperneck 29.8717 -1.21887 -0.673179
head 14.0364 -0.382573 -0.828722
rclavicle -2.33914e-014 -2.8625e-014
rhumerus -32.5183 2.38381 -78.5882
rradius 36.767
rwrist -0.0949724
rhand -9.84381 -33.8632
rfingers 7.12502
rthumb 16.134 -63.2116
lclavicle -2.33914e-014 -2.8625e-014
lhumerus -44.9522 -6.71367 90.6359
lradius 27.1324
lwrist -9.51471
lhand -12.8306 -22.6107
lfingers 7.12502
lthumb 13.2565 6.94773
rfemur 9.99535 -15.0017 24.8689
rtibia 5.49232
rfoot -13.3844 4.46452
rtoes 15.5591
lfemur -3.23396 8.076 -7.12518
ltibia 58.0146
lfoot -7.46672 7.61484
ltoes -22.9487
1433
root 47.0589 16.8762 -7.27201 354.873 2.33283 355.442
lowerback 7.93308 1.57001 3.89214
upperback 0.537437 2.53684 2.41339
thorax -3.83337 1.21207 0.0359565
lowerneck -22.8484 -0.736459 2.23075
upperneck 29.6325 -1.60293 -0.990502
head 13.8835 -0.56597 -1.06941
rclavicle -3.34859e-014 -3.10104e-014
rhumerus -31.9251 2.33722 -78.3363
rradius 36.967
rwrist -0.309391
rhand -10.1268 -34.3402
rfingers 7.12502
rthumb 15.8616 -63.7106
lclavicle -3.34859e-014 -3.10104e-014
lhumerus -45.1252 -6.63355 90.1799
lradius 27.2148
lwrist -9.3187
lhand -13.0656 -22.497
lfingers 7.12502
lthumb 13.0299 7.07601
rfemur 10.6153 -14.8394 24.8665
rtibia 5.29059
rfoot -13.3189 4.49737
rtoes 22.5436
lfemur -4.39512 7.82702 -7.32866
ltibia 58.0187
lfoot -8.25758 7.62793
ltoes -19.9009
1434
root 47.0506 16.8768 -7.17903 354.652 2.27035 355.097
lowerback 8.18727 1.68672 4.3704
upperback 0.590115 2.74622 2.36865
thorax -3.89117 1.30648 -0.307047
lowerneck -22.8796 -0.728111 2.27768
upperneck 29.6843 -1.59672 -1.02483
head 13.9117 -0.561474 -1.09085
rclavicle -1.14224e-014 -3.29983e-014
rhumerus -31.2698 2.70175 -78.1996
rradius 37.1103
rwrist -0.760354
rhand -10.1621 -34.3562
rfingers 7.12502
rthumb 15.8276 -63.7292
lclavicle -1.14224e-014 -3.29983e-014
lhumerus -45.2132 -6.3356 89.5779
lradius 27.1994
lwrist -9.38818
lhand -13.8914 -22.1876
lfingers 7.12502
lthumb 12.2338 7.43462
rfemur 11.2733 -14.5096 25.3078
rtibia 5.06335
rfoot -13.3189 4.49737
rtoes 22.5436
lfemur -5.48545 7.59012 -7.05703
ltibia 57.9306
lfoot -9.04158 7.45531
ltoes -15.9424
1435
root 47.0433 16.8746 -7.08654 354.598 2.19347 355.128
lowerback 8.26231 1.83699 4.45961
upperback 0.627564 2.95182 2.24427
thorax -3.87571 1.40644 -0.509948
lowerneck -22.9177 -0.793491 2.07006
upperneck 29.6919 -1.66465 -0.862832
head 13.9258 -0.590534 -1.00331
rclavicle -4.71104e-015 -3.37934e-014
rhumerus -30.7861 3.52047 -78.1053
rradius 37.6099
rwrist -1.52513
rhand -10.1004 -34.5948
rfingers 7.12502
rthumb 15.8869 -63.9631
lclavicle -4.71104e-015 -3.37934e-014
lhumerus -45.2637 -6.11349 89.0785
lradius 27.1581
lwrist -9.44532
lhand -13.32 -22.7725
lfingers 7.12502
lthumb 12.7847 6.81604
rfemur 11.7643 -14.5177 25.1797
rtibia 4.98804
rfoot -13.3189 4.49737
rtoes 22.5436
lfemur -6.63892 7.14515 -7.29231
ltibia 57.621
lfoot -10.3075 7.01606
ltoes -6.93375
1436
root 47.0386 16.8684 -6.99929 354.723 1.98713 355.52
lowerback 8.25882 2.07508 4.17966
upperback 0.608079 3.23396 2.0272
thorax -3.8853 1.54885 -0.609903
lowerneck -22.7746 -0.952842 1.73015
upperneck 29.4233 -1.8797 -0.498941
head 13.7849 -0.673286 -0.834648
rclavicle 5.35336e-014 4.96962e-015
rhumerus -30.1431 2.83172 -77.7051
rradius 37.6551
rwrist -0.976163
rhand -10.244 -34.3717
rfingers 7.12502
rthumb 15.7487 -63.751
lclavicle 5.35336e-014 4.96962e-015
lhumerus -45.2896 -5.7018 88.4858
lradius 27.0828
lwrist -9.74059
lhand -13.0781 -23.2067
lfingers 7.12502
lthumb 13.0179 6.36706
rfemur 12.0371 -14.4437 24.685
rtibia 5.00843
rfoot -13.3189 4.49737
rtoes 22.5436
lfemur -7.95851 7.01491 -7.96482
ltibia 57.211
lfoot -11.2072 6.77469
ltoes -2.68567
1437
root 47.0342 16.8635 -6.91216 354.801 1.7896 355.466
lowerback 8.2969 2.26113 4.38751
upperback 0.574762 3.49828 1.8911
thorax -3.91013 1.67411 -0.897349
lowerneck -22.5304 -1.10524 1.55747
upperneck 29.0663 -2.11457 -0.228668
head 13.5844 -0.761057 -0.734359
rclavicle 1.03131e-014 2.78299e-014
rhumerus -29.6783 3.21691 -77.694
rradius 38.044
rwrist -0.791423
rhand -10.8141 -34.4646
rfingers 7.12502
rthumb 15.1996 -63.8863
lclavicle 1.03131e-014 2.78299e-014
lhumerus -45.3545 -5.3626 87.8588
lradius 27.0523
lwrist -9.92237
lhand -12.9483 -23.4585
lfingers 7.12502
lthumb 13.1431 6.10729
rfemur 12.3205 -14.2818 24.7677
rtibia 4.95241
rfoot -13.3189 4.49737
rtoes 22.5436
lfemur -9.31721 7.12573 -8.04952
ltibia 56.7732
lfoot -11.608 6.68571
ltoes -2.17733
